<?xml version="1.0" encoding="utf-8" standalone="no"?>
<!DOCTYPE svg PUBLIC "-//W3C//DTD SVG 1.1//EN"
  "http://www.w3.org/Graphics/SVG/1.1/DTD/svg11.dtd">
<!-- Created with matplotlib (https://matplotlib.org/) -->
<svg height="432pt" version="1.1" viewBox="0 0 720 432" width="720pt" xmlns="http://www.w3.org/2000/svg" xmlns:xlink="http://www.w3.org/1999/xlink">
 <metadata>
  <rdf:RDF xmlns:cc="http://creativecommons.org/ns#" xmlns:dc="http://purl.org/dc/elements/1.1/" xmlns:rdf="http://www.w3.org/1999/02/22-rdf-syntax-ns#">
   <cc:Work>
    <dc:type rdf:resource="http://purl.org/dc/dcmitype/StillImage"/>
    <dc:date>2021-03-01T08:52:34.540406</dc:date>
    <dc:format>image/svg+xml</dc:format>
    <dc:creator>
     <cc:Agent>
      <dc:title>Matplotlib v3.3.2, https://matplotlib.org/</dc:title>
     </cc:Agent>
    </dc:creator>
   </cc:Work>
  </rdf:RDF>
 </metadata>
 <defs>
  <style type="text/css">*{stroke-linecap:butt;stroke-linejoin:round;}</style>
 </defs>
 <g id="figure_1">
  <g id="patch_1">
   <path d="M 0 432 
L 720 432 
L 720 0 
L 0 0 
z
" style="fill:#ffffff;"/>
  </g>
  <g id="axes_1">
   <g id="patch_2">
    <path d="M 90 378 
L 648 378 
L 648 51.84 
L 90 51.84 
z
" style="fill:#ffffff;"/>
   </g>
   <g id="matplotlib.axis_1">
    <g id="xtick_1">
     <g id="line2d_1">
      <defs>
       <path d="M 0 0 
L 0 6 
" id="md243134f1f" style="stroke:#262626;stroke-width:1.25;"/>
      </defs>
      <g>
       <use style="fill:#262626;stroke:#262626;stroke-width:1.25;" x="126.391304" xlink:href="#md243134f1f" y="378"/>
      </g>
     </g>
     <g id="text_1">
      <!-- 0 -->
      <g style="fill:#262626;" transform="translate(122.891929 395.858281)scale(0.11 -0.11)">
       <defs>
        <path d="M 31.78125 66.40625 
Q 24.171875 66.40625 20.328125 58.90625 
Q 16.5 51.421875 16.5 36.375 
Q 16.5 21.390625 20.328125 13.890625 
Q 24.171875 6.390625 31.78125 6.390625 
Q 39.453125 6.390625 43.28125 13.890625 
Q 47.125 21.390625 47.125 36.375 
Q 47.125 51.421875 43.28125 58.90625 
Q 39.453125 66.40625 31.78125 66.40625 
z
M 31.78125 74.21875 
Q 44.046875 74.21875 50.515625 64.515625 
Q 56.984375 54.828125 56.984375 36.375 
Q 56.984375 17.96875 50.515625 8.265625 
Q 44.046875 -1.421875 31.78125 -1.421875 
Q 19.53125 -1.421875 13.0625 8.265625 
Q 6.59375 17.96875 6.59375 36.375 
Q 6.59375 54.828125 13.0625 64.515625 
Q 19.53125 74.21875 31.78125 74.21875 
z
" id="DejaVuSans-48"/>
       </defs>
       <use xlink:href="#DejaVuSans-48"/>
      </g>
     </g>
    </g>
    <g id="xtick_2">
     <g id="line2d_2">
      <g>
       <use style="fill:#262626;stroke:#262626;stroke-width:1.25;" x="236.667984" xlink:href="#md243134f1f" y="378"/>
      </g>
     </g>
     <g id="text_2">
      <!-- 5 -->
      <g style="fill:#262626;" transform="translate(233.168609 395.858281)scale(0.11 -0.11)">
       <defs>
        <path d="M 10.796875 72.90625 
L 49.515625 72.90625 
L 49.515625 64.59375 
L 19.828125 64.59375 
L 19.828125 46.734375 
Q 21.96875 47.46875 24.109375 47.828125 
Q 26.265625 48.1875 28.421875 48.1875 
Q 40.625 48.1875 47.75 41.5 
Q 54.890625 34.8125 54.890625 23.390625 
Q 54.890625 11.625 47.5625 5.09375 
Q 40.234375 -1.421875 26.90625 -1.421875 
Q 22.3125 -1.421875 17.546875 -0.640625 
Q 12.796875 0.140625 7.71875 1.703125 
L 7.71875 11.625 
Q 12.109375 9.234375 16.796875 8.0625 
Q 21.484375 6.890625 26.703125 6.890625 
Q 35.15625 6.890625 40.078125 11.328125 
Q 45.015625 15.765625 45.015625 23.390625 
Q 45.015625 31 40.078125 35.4375 
Q 35.15625 39.890625 26.703125 39.890625 
Q 22.75 39.890625 18.8125 39.015625 
Q 14.890625 38.140625 10.796875 36.28125 
z
" id="DejaVuSans-53"/>
       </defs>
       <use xlink:href="#DejaVuSans-53"/>
      </g>
     </g>
    </g>
    <g id="xtick_3">
     <g id="line2d_3">
      <g>
       <use style="fill:#262626;stroke:#262626;stroke-width:1.25;" x="346.944664" xlink:href="#md243134f1f" y="378"/>
      </g>
     </g>
     <g id="text_3">
      <!-- 10 -->
      <g style="fill:#262626;" transform="translate(339.945914 395.858281)scale(0.11 -0.11)">
       <defs>
        <path d="M 12.40625 8.296875 
L 28.515625 8.296875 
L 28.515625 63.921875 
L 10.984375 60.40625 
L 10.984375 69.390625 
L 28.421875 72.90625 
L 38.28125 72.90625 
L 38.28125 8.296875 
L 54.390625 8.296875 
L 54.390625 0 
L 12.40625 0 
z
" id="DejaVuSans-49"/>
       </defs>
       <use xlink:href="#DejaVuSans-49"/>
       <use x="63.623047" xlink:href="#DejaVuSans-48"/>
      </g>
     </g>
    </g>
    <g id="xtick_4">
     <g id="line2d_4">
      <g>
       <use style="fill:#262626;stroke:#262626;stroke-width:1.25;" x="457.221344" xlink:href="#md243134f1f" y="378"/>
      </g>
     </g>
     <g id="text_4">
      <!-- 15 -->
      <g style="fill:#262626;" transform="translate(450.222594 395.858281)scale(0.11 -0.11)">
       <use xlink:href="#DejaVuSans-49"/>
       <use x="63.623047" xlink:href="#DejaVuSans-53"/>
      </g>
     </g>
    </g>
    <g id="xtick_5">
     <g id="line2d_5">
      <g>
       <use style="fill:#262626;stroke:#262626;stroke-width:1.25;" x="567.498024" xlink:href="#md243134f1f" y="378"/>
      </g>
     </g>
     <g id="text_5">
      <!-- 20 -->
      <g style="fill:#262626;" transform="translate(560.499274 395.858281)scale(0.11 -0.11)">
       <defs>
        <path d="M 19.1875 8.296875 
L 53.609375 8.296875 
L 53.609375 0 
L 7.328125 0 
L 7.328125 8.296875 
Q 12.9375 14.109375 22.625 23.890625 
Q 32.328125 33.6875 34.8125 36.53125 
Q 39.546875 41.84375 41.421875 45.53125 
Q 43.3125 49.21875 43.3125 52.78125 
Q 43.3125 58.59375 39.234375 62.25 
Q 35.15625 65.921875 28.609375 65.921875 
Q 23.96875 65.921875 18.8125 64.3125 
Q 13.671875 62.703125 7.8125 59.421875 
L 7.8125 69.390625 
Q 13.765625 71.78125 18.9375 73 
Q 24.125 74.21875 28.421875 74.21875 
Q 39.75 74.21875 46.484375 68.546875 
Q 53.21875 62.890625 53.21875 53.421875 
Q 53.21875 48.921875 51.53125 44.890625 
Q 49.859375 40.875 45.40625 35.40625 
Q 44.1875 33.984375 37.640625 27.21875 
Q 31.109375 20.453125 19.1875 8.296875 
z
" id="DejaVuSans-50"/>
       </defs>
       <use xlink:href="#DejaVuSans-50"/>
       <use x="63.623047" xlink:href="#DejaVuSans-48"/>
      </g>
     </g>
    </g>
    <g id="text_6">
     <!-- moves -->
     <g style="fill:#262626;" transform="translate(349.115625 411.264063)scale(0.12 -0.12)">
      <defs>
       <path d="M 52 44.1875 
Q 55.375 50.25 60.0625 53.125 
Q 64.75 56 71.09375 56 
Q 79.640625 56 84.28125 50.015625 
Q 88.921875 44.046875 88.921875 33.015625 
L 88.921875 0 
L 79.890625 0 
L 79.890625 32.71875 
Q 79.890625 40.578125 77.09375 44.375 
Q 74.3125 48.1875 68.609375 48.1875 
Q 61.625 48.1875 57.5625 43.546875 
Q 53.515625 38.921875 53.515625 30.90625 
L 53.515625 0 
L 44.484375 0 
L 44.484375 32.71875 
Q 44.484375 40.625 41.703125 44.40625 
Q 38.921875 48.1875 33.109375 48.1875 
Q 26.21875 48.1875 22.15625 43.53125 
Q 18.109375 38.875 18.109375 30.90625 
L 18.109375 0 
L 9.078125 0 
L 9.078125 54.6875 
L 18.109375 54.6875 
L 18.109375 46.1875 
Q 21.1875 51.21875 25.484375 53.609375 
Q 29.78125 56 35.6875 56 
Q 41.65625 56 45.828125 52.96875 
Q 50 49.953125 52 44.1875 
z
" id="DejaVuSans-109"/>
       <path d="M 30.609375 48.390625 
Q 23.390625 48.390625 19.1875 42.75 
Q 14.984375 37.109375 14.984375 27.296875 
Q 14.984375 17.484375 19.15625 11.84375 
Q 23.34375 6.203125 30.609375 6.203125 
Q 37.796875 6.203125 41.984375 11.859375 
Q 46.1875 17.53125 46.1875 27.296875 
Q 46.1875 37.015625 41.984375 42.703125 
Q 37.796875 48.390625 30.609375 48.390625 
z
M 30.609375 56 
Q 42.328125 56 49.015625 48.375 
Q 55.71875 40.765625 55.71875 27.296875 
Q 55.71875 13.875 49.015625 6.21875 
Q 42.328125 -1.421875 30.609375 -1.421875 
Q 18.84375 -1.421875 12.171875 6.21875 
Q 5.515625 13.875 5.515625 27.296875 
Q 5.515625 40.765625 12.171875 48.375 
Q 18.84375 56 30.609375 56 
z
" id="DejaVuSans-111"/>
       <path d="M 2.984375 54.6875 
L 12.5 54.6875 
L 29.59375 8.796875 
L 46.6875 54.6875 
L 56.203125 54.6875 
L 35.6875 0 
L 23.484375 0 
z
" id="DejaVuSans-118"/>
       <path d="M 56.203125 29.59375 
L 56.203125 25.203125 
L 14.890625 25.203125 
Q 15.484375 15.921875 20.484375 11.0625 
Q 25.484375 6.203125 34.421875 6.203125 
Q 39.59375 6.203125 44.453125 7.46875 
Q 49.3125 8.734375 54.109375 11.28125 
L 54.109375 2.78125 
Q 49.265625 0.734375 44.1875 -0.34375 
Q 39.109375 -1.421875 33.890625 -1.421875 
Q 20.796875 -1.421875 13.15625 6.1875 
Q 5.515625 13.8125 5.515625 26.8125 
Q 5.515625 40.234375 12.765625 48.109375 
Q 20.015625 56 32.328125 56 
Q 43.359375 56 49.78125 48.890625 
Q 56.203125 41.796875 56.203125 29.59375 
z
M 47.21875 32.234375 
Q 47.125 39.59375 43.09375 43.984375 
Q 39.0625 48.390625 32.421875 48.390625 
Q 24.90625 48.390625 20.390625 44.140625 
Q 15.875 39.890625 15.1875 32.171875 
z
" id="DejaVuSans-101"/>
       <path d="M 44.28125 53.078125 
L 44.28125 44.578125 
Q 40.484375 46.53125 36.375 47.5 
Q 32.28125 48.484375 27.875 48.484375 
Q 21.1875 48.484375 17.84375 46.4375 
Q 14.5 44.390625 14.5 40.28125 
Q 14.5 37.15625 16.890625 35.375 
Q 19.28125 33.59375 26.515625 31.984375 
L 29.59375 31.296875 
Q 39.15625 29.25 43.1875 25.515625 
Q 47.21875 21.78125 47.21875 15.09375 
Q 47.21875 7.46875 41.1875 3.015625 
Q 35.15625 -1.421875 24.609375 -1.421875 
Q 20.21875 -1.421875 15.453125 -0.5625 
Q 10.6875 0.296875 5.421875 2 
L 5.421875 11.28125 
Q 10.40625 8.6875 15.234375 7.390625 
Q 20.0625 6.109375 24.8125 6.109375 
Q 31.15625 6.109375 34.5625 8.28125 
Q 37.984375 10.453125 37.984375 14.40625 
Q 37.984375 18.0625 35.515625 20.015625 
Q 33.0625 21.96875 24.703125 23.78125 
L 21.578125 24.515625 
Q 13.234375 26.265625 9.515625 29.90625 
Q 5.8125 33.546875 5.8125 39.890625 
Q 5.8125 47.609375 11.28125 51.796875 
Q 16.75 56 26.8125 56 
Q 31.78125 56 36.171875 55.265625 
Q 40.578125 54.546875 44.28125 53.078125 
z
" id="DejaVuSans-115"/>
      </defs>
      <use xlink:href="#DejaVuSans-109"/>
      <use x="97.412109" xlink:href="#DejaVuSans-111"/>
      <use x="158.59375" xlink:href="#DejaVuSans-118"/>
      <use x="217.773438" xlink:href="#DejaVuSans-101"/>
      <use x="279.296875" xlink:href="#DejaVuSans-115"/>
     </g>
    </g>
   </g>
   <g id="matplotlib.axis_2">
    <g id="ytick_1">
     <g id="line2d_6">
      <defs>
       <path d="M 0 0 
L -6 0 
" id="m501fc53521" style="stroke:#262626;stroke-width:1.25;"/>
      </defs>
      <g>
       <use style="fill:#262626;stroke:#262626;stroke-width:1.25;" x="90" xlink:href="#m501fc53521" y="371.073812"/>
      </g>
     </g>
     <g id="text_7">
      <!-- $\mathdefault{10^{-7}}$ -->
      <g style="fill:#262626;" transform="translate(54.65 375.252953)scale(0.11 -0.11)">
       <defs>
        <path d="M 10.59375 35.5 
L 73.1875 35.5 
L 73.1875 27.203125 
L 10.59375 27.203125 
z
" id="DejaVuSans-8722"/>
        <path d="M 8.203125 72.90625 
L 55.078125 72.90625 
L 55.078125 68.703125 
L 28.609375 0 
L 18.3125 0 
L 43.21875 64.59375 
L 8.203125 64.59375 
z
" id="DejaVuSans-55"/>
       </defs>
       <use transform="translate(0 0.684375)" xlink:href="#DejaVuSans-49"/>
       <use transform="translate(63.623047 0.684375)" xlink:href="#DejaVuSans-48"/>
       <use transform="translate(128.203125 38.965625)scale(0.7)" xlink:href="#DejaVuSans-8722"/>
       <use transform="translate(186.855469 38.965625)scale(0.7)" xlink:href="#DejaVuSans-55"/>
      </g>
     </g>
    </g>
    <g id="ytick_2">
     <g id="line2d_7">
      <g>
       <use style="fill:#262626;stroke:#262626;stroke-width:1.25;" x="90" xlink:href="#m501fc53521" y="322.176752"/>
      </g>
     </g>
     <g id="text_8">
      <!-- $\mathdefault{10^{-6}}$ -->
      <g style="fill:#262626;" transform="translate(54.65 326.355893)scale(0.11 -0.11)">
       <defs>
        <path d="M 33.015625 40.375 
Q 26.375 40.375 22.484375 35.828125 
Q 18.609375 31.296875 18.609375 23.390625 
Q 18.609375 15.53125 22.484375 10.953125 
Q 26.375 6.390625 33.015625 6.390625 
Q 39.65625 6.390625 43.53125 10.953125 
Q 47.40625 15.53125 47.40625 23.390625 
Q 47.40625 31.296875 43.53125 35.828125 
Q 39.65625 40.375 33.015625 40.375 
z
M 52.59375 71.296875 
L 52.59375 62.3125 
Q 48.875 64.0625 45.09375 64.984375 
Q 41.3125 65.921875 37.59375 65.921875 
Q 27.828125 65.921875 22.671875 59.328125 
Q 17.53125 52.734375 16.796875 39.40625 
Q 19.671875 43.65625 24.015625 45.921875 
Q 28.375 48.1875 33.59375 48.1875 
Q 44.578125 48.1875 50.953125 41.515625 
Q 57.328125 34.859375 57.328125 23.390625 
Q 57.328125 12.15625 50.6875 5.359375 
Q 44.046875 -1.421875 33.015625 -1.421875 
Q 20.359375 -1.421875 13.671875 8.265625 
Q 6.984375 17.96875 6.984375 36.375 
Q 6.984375 53.65625 15.1875 63.9375 
Q 23.390625 74.21875 37.203125 74.21875 
Q 40.921875 74.21875 44.703125 73.484375 
Q 48.484375 72.75 52.59375 71.296875 
z
" id="DejaVuSans-54"/>
       </defs>
       <use transform="translate(0 0.765625)" xlink:href="#DejaVuSans-49"/>
       <use transform="translate(63.623047 0.765625)" xlink:href="#DejaVuSans-48"/>
       <use transform="translate(128.203125 39.046875)scale(0.7)" xlink:href="#DejaVuSans-8722"/>
       <use transform="translate(186.855469 39.046875)scale(0.7)" xlink:href="#DejaVuSans-54"/>
      </g>
     </g>
    </g>
    <g id="ytick_3">
     <g id="line2d_8">
      <g>
       <use style="fill:#262626;stroke:#262626;stroke-width:1.25;" x="90" xlink:href="#m501fc53521" y="273.279692"/>
      </g>
     </g>
     <g id="text_9">
      <!-- $\mathdefault{10^{-5}}$ -->
      <g style="fill:#262626;" transform="translate(54.65 277.458832)scale(0.11 -0.11)">
       <use transform="translate(0 0.684375)" xlink:href="#DejaVuSans-49"/>
       <use transform="translate(63.623047 0.684375)" xlink:href="#DejaVuSans-48"/>
       <use transform="translate(128.203125 38.965625)scale(0.7)" xlink:href="#DejaVuSans-8722"/>
       <use transform="translate(186.855469 38.965625)scale(0.7)" xlink:href="#DejaVuSans-53"/>
      </g>
     </g>
    </g>
    <g id="ytick_4">
     <g id="line2d_9">
      <g>
       <use style="fill:#262626;stroke:#262626;stroke-width:1.25;" x="90" xlink:href="#m501fc53521" y="224.382632"/>
      </g>
     </g>
     <g id="text_10">
      <!-- $\mathdefault{10^{-4}}$ -->
      <g style="fill:#262626;" transform="translate(54.65 228.561772)scale(0.11 -0.11)">
       <defs>
        <path d="M 37.796875 64.3125 
L 12.890625 25.390625 
L 37.796875 25.390625 
z
M 35.203125 72.90625 
L 47.609375 72.90625 
L 47.609375 25.390625 
L 58.015625 25.390625 
L 58.015625 17.1875 
L 47.609375 17.1875 
L 47.609375 0 
L 37.796875 0 
L 37.796875 17.1875 
L 4.890625 17.1875 
L 4.890625 26.703125 
z
" id="DejaVuSans-52"/>
       </defs>
       <use transform="translate(0 0.684375)" xlink:href="#DejaVuSans-49"/>
       <use transform="translate(63.623047 0.684375)" xlink:href="#DejaVuSans-48"/>
       <use transform="translate(128.203125 38.965625)scale(0.7)" xlink:href="#DejaVuSans-8722"/>
       <use transform="translate(186.855469 38.965625)scale(0.7)" xlink:href="#DejaVuSans-52"/>
      </g>
     </g>
    </g>
    <g id="ytick_5">
     <g id="line2d_10">
      <g>
       <use style="fill:#262626;stroke:#262626;stroke-width:1.25;" x="90" xlink:href="#m501fc53521" y="175.485571"/>
      </g>
     </g>
     <g id="text_11">
      <!-- $\mathdefault{10^{-3}}$ -->
      <g style="fill:#262626;" transform="translate(54.65 179.664712)scale(0.11 -0.11)">
       <defs>
        <path d="M 40.578125 39.3125 
Q 47.65625 37.796875 51.625 33 
Q 55.609375 28.21875 55.609375 21.1875 
Q 55.609375 10.40625 48.1875 4.484375 
Q 40.765625 -1.421875 27.09375 -1.421875 
Q 22.515625 -1.421875 17.65625 -0.515625 
Q 12.796875 0.390625 7.625 2.203125 
L 7.625 11.71875 
Q 11.71875 9.328125 16.59375 8.109375 
Q 21.484375 6.890625 26.8125 6.890625 
Q 36.078125 6.890625 40.9375 10.546875 
Q 45.796875 14.203125 45.796875 21.1875 
Q 45.796875 27.640625 41.28125 31.265625 
Q 36.765625 34.90625 28.71875 34.90625 
L 20.21875 34.90625 
L 20.21875 43.015625 
L 29.109375 43.015625 
Q 36.375 43.015625 40.234375 45.921875 
Q 44.09375 48.828125 44.09375 54.296875 
Q 44.09375 59.90625 40.109375 62.90625 
Q 36.140625 65.921875 28.71875 65.921875 
Q 24.65625 65.921875 20.015625 65.03125 
Q 15.375 64.15625 9.8125 62.3125 
L 9.8125 71.09375 
Q 15.4375 72.65625 20.34375 73.4375 
Q 25.25 74.21875 29.59375 74.21875 
Q 40.828125 74.21875 47.359375 69.109375 
Q 53.90625 64.015625 53.90625 55.328125 
Q 53.90625 49.265625 50.4375 45.09375 
Q 46.96875 40.921875 40.578125 39.3125 
z
" id="DejaVuSans-51"/>
       </defs>
       <use transform="translate(0 0.765625)" xlink:href="#DejaVuSans-49"/>
       <use transform="translate(63.623047 0.765625)" xlink:href="#DejaVuSans-48"/>
       <use transform="translate(128.203125 39.046875)scale(0.7)" xlink:href="#DejaVuSans-8722"/>
       <use transform="translate(186.855469 39.046875)scale(0.7)" xlink:href="#DejaVuSans-51"/>
      </g>
     </g>
    </g>
    <g id="ytick_6">
     <g id="line2d_11">
      <g>
       <use style="fill:#262626;stroke:#262626;stroke-width:1.25;" x="90" xlink:href="#m501fc53521" y="126.588511"/>
      </g>
     </g>
     <g id="text_12">
      <!-- $\mathdefault{10^{-2}}$ -->
      <g style="fill:#262626;" transform="translate(54.65 130.767652)scale(0.11 -0.11)">
       <use transform="translate(0 0.765625)" xlink:href="#DejaVuSans-49"/>
       <use transform="translate(63.623047 0.765625)" xlink:href="#DejaVuSans-48"/>
       <use transform="translate(128.203125 39.046875)scale(0.7)" xlink:href="#DejaVuSans-8722"/>
       <use transform="translate(186.855469 39.046875)scale(0.7)" xlink:href="#DejaVuSans-50"/>
      </g>
     </g>
    </g>
    <g id="ytick_7">
     <g id="line2d_12">
      <g>
       <use style="fill:#262626;stroke:#262626;stroke-width:1.25;" x="90" xlink:href="#m501fc53521" y="77.691451"/>
      </g>
     </g>
     <g id="text_13">
      <!-- $\mathdefault{10^{-1}}$ -->
      <g style="fill:#262626;" transform="translate(54.65 81.870592)scale(0.11 -0.11)">
       <use transform="translate(0 0.684375)" xlink:href="#DejaVuSans-49"/>
       <use transform="translate(63.623047 0.684375)" xlink:href="#DejaVuSans-48"/>
       <use transform="translate(128.203125 38.965625)scale(0.7)" xlink:href="#DejaVuSans-8722"/>
       <use transform="translate(186.855469 38.965625)scale(0.7)" xlink:href="#DejaVuSans-49"/>
      </g>
     </g>
    </g>
    <g id="ytick_8">
     <g id="line2d_13">
      <defs>
       <path d="M 0 0 
L -4 0 
" id="m30866803b9" style="stroke:#262626;"/>
      </defs>
      <g>
       <use style="fill:#262626;stroke:#262626;" x="90" xlink:href="#m30866803b9" y="375.812427"/>
      </g>
     </g>
    </g>
    <g id="ytick_9">
     <g id="line2d_14">
      <g>
       <use style="fill:#262626;stroke:#262626;" x="90" xlink:href="#m30866803b9" y="373.311219"/>
      </g>
     </g>
    </g>
    <g id="ytick_10">
     <g id="line2d_15">
      <g>
       <use style="fill:#262626;stroke:#262626;" x="90" xlink:href="#m30866803b9" y="356.35433"/>
      </g>
     </g>
    </g>
    <g id="ytick_11">
     <g id="line2d_16">
      <g>
       <use style="fill:#262626;stroke:#262626;" x="90" xlink:href="#m30866803b9" y="347.743986"/>
      </g>
     </g>
    </g>
    <g id="ytick_12">
     <g id="line2d_17">
      <g>
       <use style="fill:#262626;stroke:#262626;" x="90" xlink:href="#m30866803b9" y="341.634849"/>
      </g>
     </g>
    </g>
    <g id="ytick_13">
     <g id="line2d_18">
      <g>
       <use style="fill:#262626;stroke:#262626;" x="90" xlink:href="#m30866803b9" y="336.896234"/>
      </g>
     </g>
    </g>
    <g id="ytick_14">
     <g id="line2d_19">
      <g>
       <use style="fill:#262626;stroke:#262626;" x="90" xlink:href="#m30866803b9" y="333.024504"/>
      </g>
     </g>
    </g>
    <g id="ytick_15">
     <g id="line2d_20">
      <g>
       <use style="fill:#262626;stroke:#262626;" x="90" xlink:href="#m30866803b9" y="329.751003"/>
      </g>
     </g>
    </g>
    <g id="ytick_16">
     <g id="line2d_21">
      <g>
       <use style="fill:#262626;stroke:#262626;" x="90" xlink:href="#m30866803b9" y="326.915367"/>
      </g>
     </g>
    </g>
    <g id="ytick_17">
     <g id="line2d_22">
      <g>
       <use style="fill:#262626;stroke:#262626;" x="90" xlink:href="#m30866803b9" y="324.414159"/>
      </g>
     </g>
    </g>
    <g id="ytick_18">
     <g id="line2d_23">
      <g>
       <use style="fill:#262626;stroke:#262626;" x="90" xlink:href="#m30866803b9" y="307.45727"/>
      </g>
     </g>
    </g>
    <g id="ytick_19">
     <g id="line2d_24">
      <g>
       <use style="fill:#262626;stroke:#262626;" x="90" xlink:href="#m30866803b9" y="298.846925"/>
      </g>
     </g>
    </g>
    <g id="ytick_20">
     <g id="line2d_25">
      <g>
       <use style="fill:#262626;stroke:#262626;" x="90" xlink:href="#m30866803b9" y="292.737788"/>
      </g>
     </g>
    </g>
    <g id="ytick_21">
     <g id="line2d_26">
      <g>
       <use style="fill:#262626;stroke:#262626;" x="90" xlink:href="#m30866803b9" y="287.999174"/>
      </g>
     </g>
    </g>
    <g id="ytick_22">
     <g id="line2d_27">
      <g>
       <use style="fill:#262626;stroke:#262626;" x="90" xlink:href="#m30866803b9" y="284.127444"/>
      </g>
     </g>
    </g>
    <g id="ytick_23">
     <g id="line2d_28">
      <g>
       <use style="fill:#262626;stroke:#262626;" x="90" xlink:href="#m30866803b9" y="280.853942"/>
      </g>
     </g>
    </g>
    <g id="ytick_24">
     <g id="line2d_29">
      <g>
       <use style="fill:#262626;stroke:#262626;" x="90" xlink:href="#m30866803b9" y="278.018307"/>
      </g>
     </g>
    </g>
    <g id="ytick_25">
     <g id="line2d_30">
      <g>
       <use style="fill:#262626;stroke:#262626;" x="90" xlink:href="#m30866803b9" y="275.517099"/>
      </g>
     </g>
    </g>
    <g id="ytick_26">
     <g id="line2d_31">
      <g>
       <use style="fill:#262626;stroke:#262626;" x="90" xlink:href="#m30866803b9" y="258.56021"/>
      </g>
     </g>
    </g>
    <g id="ytick_27">
     <g id="line2d_32">
      <g>
       <use style="fill:#262626;stroke:#262626;" x="90" xlink:href="#m30866803b9" y="249.949865"/>
      </g>
     </g>
    </g>
    <g id="ytick_28">
     <g id="line2d_33">
      <g>
       <use style="fill:#262626;stroke:#262626;" x="90" xlink:href="#m30866803b9" y="243.840728"/>
      </g>
     </g>
    </g>
    <g id="ytick_29">
     <g id="line2d_34">
      <g>
       <use style="fill:#262626;stroke:#262626;" x="90" xlink:href="#m30866803b9" y="239.102113"/>
      </g>
     </g>
    </g>
    <g id="ytick_30">
     <g id="line2d_35">
      <g>
       <use style="fill:#262626;stroke:#262626;" x="90" xlink:href="#m30866803b9" y="235.230383"/>
      </g>
     </g>
    </g>
    <g id="ytick_31">
     <g id="line2d_36">
      <g>
       <use style="fill:#262626;stroke:#262626;" x="90" xlink:href="#m30866803b9" y="231.956882"/>
      </g>
     </g>
    </g>
    <g id="ytick_32">
     <g id="line2d_37">
      <g>
       <use style="fill:#262626;stroke:#262626;" x="90" xlink:href="#m30866803b9" y="229.121246"/>
      </g>
     </g>
    </g>
    <g id="ytick_33">
     <g id="line2d_38">
      <g>
       <use style="fill:#262626;stroke:#262626;" x="90" xlink:href="#m30866803b9" y="226.620038"/>
      </g>
     </g>
    </g>
    <g id="ytick_34">
     <g id="line2d_39">
      <g>
       <use style="fill:#262626;stroke:#262626;" x="90" xlink:href="#m30866803b9" y="209.66315"/>
      </g>
     </g>
    </g>
    <g id="ytick_35">
     <g id="line2d_40">
      <g>
       <use style="fill:#262626;stroke:#262626;" x="90" xlink:href="#m30866803b9" y="201.052805"/>
      </g>
     </g>
    </g>
    <g id="ytick_36">
     <g id="line2d_41">
      <g>
       <use style="fill:#262626;stroke:#262626;" x="90" xlink:href="#m30866803b9" y="194.943668"/>
      </g>
     </g>
    </g>
    <g id="ytick_37">
     <g id="line2d_42">
      <g>
       <use style="fill:#262626;stroke:#262626;" x="90" xlink:href="#m30866803b9" y="190.205053"/>
      </g>
     </g>
    </g>
    <g id="ytick_38">
     <g id="line2d_43">
      <g>
       <use style="fill:#262626;stroke:#262626;" x="90" xlink:href="#m30866803b9" y="186.333323"/>
      </g>
     </g>
    </g>
    <g id="ytick_39">
     <g id="line2d_44">
      <g>
       <use style="fill:#262626;stroke:#262626;" x="90" xlink:href="#m30866803b9" y="183.059822"/>
      </g>
     </g>
    </g>
    <g id="ytick_40">
     <g id="line2d_45">
      <g>
       <use style="fill:#262626;stroke:#262626;" x="90" xlink:href="#m30866803b9" y="180.224186"/>
      </g>
     </g>
    </g>
    <g id="ytick_41">
     <g id="line2d_46">
      <g>
       <use style="fill:#262626;stroke:#262626;" x="90" xlink:href="#m30866803b9" y="177.722978"/>
      </g>
     </g>
    </g>
    <g id="ytick_42">
     <g id="line2d_47">
      <g>
       <use style="fill:#262626;stroke:#262626;" x="90" xlink:href="#m30866803b9" y="160.76609"/>
      </g>
     </g>
    </g>
    <g id="ytick_43">
     <g id="line2d_48">
      <g>
       <use style="fill:#262626;stroke:#262626;" x="90" xlink:href="#m30866803b9" y="152.155745"/>
      </g>
     </g>
    </g>
    <g id="ytick_44">
     <g id="line2d_49">
      <g>
       <use style="fill:#262626;stroke:#262626;" x="90" xlink:href="#m30866803b9" y="146.046608"/>
      </g>
     </g>
    </g>
    <g id="ytick_45">
     <g id="line2d_50">
      <g>
       <use style="fill:#262626;stroke:#262626;" x="90" xlink:href="#m30866803b9" y="141.307993"/>
      </g>
     </g>
    </g>
    <g id="ytick_46">
     <g id="line2d_51">
      <g>
       <use style="fill:#262626;stroke:#262626;" x="90" xlink:href="#m30866803b9" y="137.436263"/>
      </g>
     </g>
    </g>
    <g id="ytick_47">
     <g id="line2d_52">
      <g>
       <use style="fill:#262626;stroke:#262626;" x="90" xlink:href="#m30866803b9" y="134.162762"/>
      </g>
     </g>
    </g>
    <g id="ytick_48">
     <g id="line2d_53">
      <g>
       <use style="fill:#262626;stroke:#262626;" x="90" xlink:href="#m30866803b9" y="131.327126"/>
      </g>
     </g>
    </g>
    <g id="ytick_49">
     <g id="line2d_54">
      <g>
       <use style="fill:#262626;stroke:#262626;" x="90" xlink:href="#m30866803b9" y="128.825918"/>
      </g>
     </g>
    </g>
    <g id="ytick_50">
     <g id="line2d_55">
      <g>
       <use style="fill:#262626;stroke:#262626;" x="90" xlink:href="#m30866803b9" y="111.869029"/>
      </g>
     </g>
    </g>
    <g id="ytick_51">
     <g id="line2d_56">
      <g>
       <use style="fill:#262626;stroke:#262626;" x="90" xlink:href="#m30866803b9" y="103.258684"/>
      </g>
     </g>
    </g>
    <g id="ytick_52">
     <g id="line2d_57">
      <g>
       <use style="fill:#262626;stroke:#262626;" x="90" xlink:href="#m30866803b9" y="97.149548"/>
      </g>
     </g>
    </g>
    <g id="ytick_53">
     <g id="line2d_58">
      <g>
       <use style="fill:#262626;stroke:#262626;" x="90" xlink:href="#m30866803b9" y="92.410933"/>
      </g>
     </g>
    </g>
    <g id="ytick_54">
     <g id="line2d_59">
      <g>
       <use style="fill:#262626;stroke:#262626;" x="90" xlink:href="#m30866803b9" y="88.539203"/>
      </g>
     </g>
    </g>
    <g id="ytick_55">
     <g id="line2d_60">
      <g>
       <use style="fill:#262626;stroke:#262626;" x="90" xlink:href="#m30866803b9" y="85.265701"/>
      </g>
     </g>
    </g>
    <g id="ytick_56">
     <g id="line2d_61">
      <g>
       <use style="fill:#262626;stroke:#262626;" x="90" xlink:href="#m30866803b9" y="82.430066"/>
      </g>
     </g>
    </g>
    <g id="ytick_57">
     <g id="line2d_62">
      <g>
       <use style="fill:#262626;stroke:#262626;" x="90" xlink:href="#m30866803b9" y="79.928858"/>
      </g>
     </g>
    </g>
    <g id="ytick_58">
     <g id="line2d_63">
      <g>
       <use style="fill:#262626;stroke:#262626;" x="90" xlink:href="#m30866803b9" y="62.971969"/>
      </g>
     </g>
    </g>
    <g id="ytick_59">
     <g id="line2d_64">
      <g>
       <use style="fill:#262626;stroke:#262626;" x="90" xlink:href="#m30866803b9" y="54.361624"/>
      </g>
     </g>
    </g>
    <g id="text_14">
     <!-- probability -->
     <g style="fill:#262626;" transform="translate(48.154375 246.930937)rotate(-90)scale(0.12 -0.12)">
      <defs>
       <path d="M 18.109375 8.203125 
L 18.109375 -20.796875 
L 9.078125 -20.796875 
L 9.078125 54.6875 
L 18.109375 54.6875 
L 18.109375 46.390625 
Q 20.953125 51.265625 25.265625 53.625 
Q 29.59375 56 35.59375 56 
Q 45.5625 56 51.78125 48.09375 
Q 58.015625 40.1875 58.015625 27.296875 
Q 58.015625 14.40625 51.78125 6.484375 
Q 45.5625 -1.421875 35.59375 -1.421875 
Q 29.59375 -1.421875 25.265625 0.953125 
Q 20.953125 3.328125 18.109375 8.203125 
z
M 48.6875 27.296875 
Q 48.6875 37.203125 44.609375 42.84375 
Q 40.53125 48.484375 33.40625 48.484375 
Q 26.265625 48.484375 22.1875 42.84375 
Q 18.109375 37.203125 18.109375 27.296875 
Q 18.109375 17.390625 22.1875 11.75 
Q 26.265625 6.109375 33.40625 6.109375 
Q 40.53125 6.109375 44.609375 11.75 
Q 48.6875 17.390625 48.6875 27.296875 
z
" id="DejaVuSans-112"/>
       <path d="M 41.109375 46.296875 
Q 39.59375 47.171875 37.8125 47.578125 
Q 36.03125 48 33.890625 48 
Q 26.265625 48 22.1875 43.046875 
Q 18.109375 38.09375 18.109375 28.8125 
L 18.109375 0 
L 9.078125 0 
L 9.078125 54.6875 
L 18.109375 54.6875 
L 18.109375 46.1875 
Q 20.953125 51.171875 25.484375 53.578125 
Q 30.03125 56 36.53125 56 
Q 37.453125 56 38.578125 55.875 
Q 39.703125 55.765625 41.0625 55.515625 
z
" id="DejaVuSans-114"/>
       <path d="M 48.6875 27.296875 
Q 48.6875 37.203125 44.609375 42.84375 
Q 40.53125 48.484375 33.40625 48.484375 
Q 26.265625 48.484375 22.1875 42.84375 
Q 18.109375 37.203125 18.109375 27.296875 
Q 18.109375 17.390625 22.1875 11.75 
Q 26.265625 6.109375 33.40625 6.109375 
Q 40.53125 6.109375 44.609375 11.75 
Q 48.6875 17.390625 48.6875 27.296875 
z
M 18.109375 46.390625 
Q 20.953125 51.265625 25.265625 53.625 
Q 29.59375 56 35.59375 56 
Q 45.5625 56 51.78125 48.09375 
Q 58.015625 40.1875 58.015625 27.296875 
Q 58.015625 14.40625 51.78125 6.484375 
Q 45.5625 -1.421875 35.59375 -1.421875 
Q 29.59375 -1.421875 25.265625 0.953125 
Q 20.953125 3.328125 18.109375 8.203125 
L 18.109375 0 
L 9.078125 0 
L 9.078125 75.984375 
L 18.109375 75.984375 
z
" id="DejaVuSans-98"/>
       <path d="M 34.28125 27.484375 
Q 23.390625 27.484375 19.1875 25 
Q 14.984375 22.515625 14.984375 16.5 
Q 14.984375 11.71875 18.140625 8.90625 
Q 21.296875 6.109375 26.703125 6.109375 
Q 34.1875 6.109375 38.703125 11.40625 
Q 43.21875 16.703125 43.21875 25.484375 
L 43.21875 27.484375 
z
M 52.203125 31.203125 
L 52.203125 0 
L 43.21875 0 
L 43.21875 8.296875 
Q 40.140625 3.328125 35.546875 0.953125 
Q 30.953125 -1.421875 24.3125 -1.421875 
Q 15.921875 -1.421875 10.953125 3.296875 
Q 6 8.015625 6 15.921875 
Q 6 25.140625 12.171875 29.828125 
Q 18.359375 34.515625 30.609375 34.515625 
L 43.21875 34.515625 
L 43.21875 35.40625 
Q 43.21875 41.609375 39.140625 45 
Q 35.0625 48.390625 27.6875 48.390625 
Q 23 48.390625 18.546875 47.265625 
Q 14.109375 46.140625 10.015625 43.890625 
L 10.015625 52.203125 
Q 14.9375 54.109375 19.578125 55.046875 
Q 24.21875 56 28.609375 56 
Q 40.484375 56 46.34375 49.84375 
Q 52.203125 43.703125 52.203125 31.203125 
z
" id="DejaVuSans-97"/>
       <path d="M 9.421875 54.6875 
L 18.40625 54.6875 
L 18.40625 0 
L 9.421875 0 
z
M 9.421875 75.984375 
L 18.40625 75.984375 
L 18.40625 64.59375 
L 9.421875 64.59375 
z
" id="DejaVuSans-105"/>
       <path d="M 9.421875 75.984375 
L 18.40625 75.984375 
L 18.40625 0 
L 9.421875 0 
z
" id="DejaVuSans-108"/>
       <path d="M 18.3125 70.21875 
L 18.3125 54.6875 
L 36.8125 54.6875 
L 36.8125 47.703125 
L 18.3125 47.703125 
L 18.3125 18.015625 
Q 18.3125 11.328125 20.140625 9.421875 
Q 21.96875 7.515625 27.59375 7.515625 
L 36.8125 7.515625 
L 36.8125 0 
L 27.59375 0 
Q 17.1875 0 13.234375 3.875 
Q 9.28125 7.765625 9.28125 18.015625 
L 9.28125 47.703125 
L 2.6875 47.703125 
L 2.6875 54.6875 
L 9.28125 54.6875 
L 9.28125 70.21875 
z
" id="DejaVuSans-116"/>
       <path d="M 32.171875 -5.078125 
Q 28.375 -14.84375 24.75 -17.8125 
Q 21.140625 -20.796875 15.09375 -20.796875 
L 7.90625 -20.796875 
L 7.90625 -13.28125 
L 13.1875 -13.28125 
Q 16.890625 -13.28125 18.9375 -11.515625 
Q 21 -9.765625 23.484375 -3.21875 
L 25.09375 0.875 
L 2.984375 54.6875 
L 12.5 54.6875 
L 29.59375 11.921875 
L 46.6875 54.6875 
L 56.203125 54.6875 
z
" id="DejaVuSans-121"/>
      </defs>
      <use xlink:href="#DejaVuSans-112"/>
      <use x="63.476562" xlink:href="#DejaVuSans-114"/>
      <use x="102.339844" xlink:href="#DejaVuSans-111"/>
      <use x="163.521484" xlink:href="#DejaVuSans-98"/>
      <use x="226.998047" xlink:href="#DejaVuSans-97"/>
      <use x="288.277344" xlink:href="#DejaVuSans-98"/>
      <use x="351.753906" xlink:href="#DejaVuSans-105"/>
      <use x="379.537109" xlink:href="#DejaVuSans-108"/>
      <use x="407.320312" xlink:href="#DejaVuSans-105"/>
      <use x="435.103516" xlink:href="#DejaVuSans-116"/>
      <use x="474.3125" xlink:href="#DejaVuSans-121"/>
     </g>
    </g>
   </g>
   <g id="patch_3">
    <path clip-path="url(#p3c350859d6)" d="M 115.363636 48925.854615 
L 137.418972 48925.854615 
L 137.418972 48925.854615 
L 115.363636 48925.854615 
z
" style="fill:#2d1e3e;fill-opacity:0.75;stroke:#ffffff;stroke-linejoin:miter;"/>
   </g>
   <g id="patch_4">
    <path clip-path="url(#p3c350859d6)" d="M 137.418972 48925.854615 
L 159.474308 48925.854615 
L 159.474308 48925.854615 
L 137.418972 48925.854615 
z
" style="fill:#2d1e3e;fill-opacity:0.75;stroke:#ffffff;stroke-linejoin:miter;"/>
   </g>
   <g id="patch_5">
    <path clip-path="url(#p3c350859d6)" d="M 159.474308 48925.854615 
L 181.529644 48925.854615 
L 181.529644 48925.854615 
L 159.474308 48925.854615 
z
" style="fill:#2d1e3e;fill-opacity:0.75;stroke:#ffffff;stroke-linejoin:miter;"/>
   </g>
   <g id="patch_6">
    <path clip-path="url(#p3c350859d6)" d="M 181.529644 48925.854615 
L 203.58498 48925.854615 
L 203.58498 48925.854615 
L 181.529644 48925.854615 
z
" style="fill:#2d1e3e;fill-opacity:0.75;stroke:#ffffff;stroke-linejoin:miter;"/>
   </g>
   <g id="patch_7">
    <path clip-path="url(#p3c350859d6)" d="M 203.58498 48925.854615 
L 225.640316 48925.854615 
L 225.640316 326.972986 
L 203.58498 326.972986 
z
" style="fill:#2d1e3e;fill-opacity:0.75;stroke:#ffffff;stroke-linejoin:miter;"/>
   </g>
   <g id="patch_8">
    <path clip-path="url(#p3c350859d6)" d="M 225.640316 48925.854615 
L 247.695652 48925.854615 
L 247.695652 251.144204 
L 225.640316 251.144204 
z
" style="fill:#2d1e3e;fill-opacity:0.75;stroke:#ffffff;stroke-linejoin:miter;"/>
   </g>
   <g id="patch_9">
    <path clip-path="url(#p3c350859d6)" d="M 247.695652 48925.854615 
L 269.750988 48925.854615 
L 269.750988 211.787264 
L 247.695652 211.787264 
z
" style="fill:#2d1e3e;fill-opacity:0.75;stroke:#ffffff;stroke-linejoin:miter;"/>
   </g>
   <g id="patch_10">
    <path clip-path="url(#p3c350859d6)" d="M 269.750988 48925.854615 
L 291.806324 48925.854615 
L 291.806324 189.178829 
L 269.750988 189.178829 
z
" style="fill:#2d1e3e;fill-opacity:0.75;stroke:#ffffff;stroke-linejoin:miter;"/>
   </g>
   <g id="patch_11">
    <path clip-path="url(#p3c350859d6)" d="M 291.806324 48925.854615 
L 313.86166 48925.854615 
L 313.86166 176.881819 
L 291.806324 176.881819 
z
" style="fill:#2d1e3e;fill-opacity:0.75;stroke:#ffffff;stroke-linejoin:miter;"/>
   </g>
   <g id="patch_12">
    <path clip-path="url(#p3c350859d6)" d="M 313.86166 48925.854615 
L 335.916996 48925.854615 
L 335.916996 172.622974 
L 313.86166 172.622974 
z
" style="fill:#2d1e3e;fill-opacity:0.75;stroke:#ffffff;stroke-linejoin:miter;"/>
   </g>
   <g id="patch_13">
    <path clip-path="url(#p3c350859d6)" d="M 335.916996 48925.854615 
L 357.972332 48925.854615 
L 357.972332 174.409508 
L 335.916996 174.409508 
z
" style="fill:#2d1e3e;fill-opacity:0.75;stroke:#ffffff;stroke-linejoin:miter;"/>
   </g>
   <g id="patch_14">
    <path clip-path="url(#p3c350859d6)" d="M 357.972332 48925.854615 
L 380.027668 48925.854615 
L 380.027668 180.264438 
L 357.972332 180.264438 
z
" style="fill:#2d1e3e;fill-opacity:0.75;stroke:#ffffff;stroke-linejoin:miter;"/>
   </g>
   <g id="patch_15">
    <path clip-path="url(#p3c350859d6)" d="M 380.027668 48925.854615 
L 402.083004 48925.854615 
L 402.083004 188.591202 
L 380.027668 188.591202 
z
" style="fill:#2d1e3e;fill-opacity:0.75;stroke:#ffffff;stroke-linejoin:miter;"/>
   </g>
   <g id="patch_16">
    <path clip-path="url(#p3c350859d6)" d="M 402.083004 48925.854615 
L 424.13834 48925.854615 
L 424.13834 197.856789 
L 402.083004 197.856789 
z
" style="fill:#2d1e3e;fill-opacity:0.75;stroke:#ffffff;stroke-linejoin:miter;"/>
   </g>
   <g id="patch_17">
    <path clip-path="url(#p3c350859d6)" d="M 424.13834 48925.854615 
L 446.193676 48925.854615 
L 446.193676 208.505253 
L 424.13834 208.505253 
z
" style="fill:#2d1e3e;fill-opacity:0.75;stroke:#ffffff;stroke-linejoin:miter;"/>
   </g>
   <g id="patch_18">
    <path clip-path="url(#p3c350859d6)" d="M 446.193676 48925.854615 
L 468.249012 48925.854615 
L 468.249012 219.673855 
L 446.193676 219.673855 
z
" style="fill:#2d1e3e;fill-opacity:0.75;stroke:#ffffff;stroke-linejoin:miter;"/>
   </g>
   <g id="patch_19">
    <path clip-path="url(#p3c350859d6)" d="M 468.249012 48925.854615 
L 490.304348 48925.854615 
L 490.304348 233.252325 
L 468.249012 233.252325 
z
" style="fill:#2d1e3e;fill-opacity:0.75;stroke:#ffffff;stroke-linejoin:miter;"/>
   </g>
   <g id="patch_20">
    <path clip-path="url(#p3c350859d6)" d="M 490.304348 48925.854615 
L 512.359684 48925.854615 
L 512.359684 246.481762 
L 490.304348 246.481762 
z
" style="fill:#2d1e3e;fill-opacity:0.75;stroke:#ffffff;stroke-linejoin:miter;"/>
   </g>
   <g id="patch_21">
    <path clip-path="url(#p3c350859d6)" d="M 512.359684 48925.854615 
L 534.41502 48925.854615 
L 534.41502 263.260137 
L 512.359684 263.260137 
z
" style="fill:#2d1e3e;fill-opacity:0.75;stroke:#ffffff;stroke-linejoin:miter;"/>
   </g>
   <g id="patch_22">
    <path clip-path="url(#p3c350859d6)" d="M 534.41502 48925.854615 
L 556.470356 48925.854615 
L 556.470356 284.838522 
L 534.41502 284.838522 
z
" style="fill:#2d1e3e;fill-opacity:0.75;stroke:#ffffff;stroke-linejoin:miter;"/>
   </g>
   <g id="patch_23">
    <path clip-path="url(#p3c350859d6)" d="M 556.470356 48925.854615 
L 578.525692 48925.854615 
L 578.525692 310.405755 
L 556.470356 310.405755 
z
" style="fill:#2d1e3e;fill-opacity:0.75;stroke:#ffffff;stroke-linejoin:miter;"/>
   </g>
   <g id="patch_24">
    <path clip-path="url(#p3c350859d6)" d="M 578.525692 48925.854615 
L 600.581028 48925.854615 
L 600.581028 336.571218 
L 578.525692 336.571218 
z
" style="fill:#2d1e3e;fill-opacity:0.75;stroke:#ffffff;stroke-linejoin:miter;"/>
   </g>
   <g id="patch_25">
    <path clip-path="url(#p3c350859d6)" d="M 600.581028 48925.854615 
L 622.636364 48925.854615 
L 622.636364 363.174545 
L 600.581028 363.174545 
z
" style="fill:#2d1e3e;fill-opacity:0.75;stroke:#ffffff;stroke-linejoin:miter;"/>
   </g>
   <g id="patch_26">
    <path clip-path="url(#p3c350859d6)" d="M 115.363636 48925.854615 
L 137.418972 48925.854615 
L 137.418972 48925.854615 
L 115.363636 48925.854615 
z
" style="fill:#6c3f70;fill-opacity:0.75;stroke:#ffffff;stroke-linejoin:miter;"/>
   </g>
   <g id="patch_27">
    <path clip-path="url(#p3c350859d6)" d="M 137.418972 48925.854615 
L 159.474308 48925.854615 
L 159.474308 48925.854615 
L 137.418972 48925.854615 
z
" style="fill:#6c3f70;fill-opacity:0.75;stroke:#ffffff;stroke-linejoin:miter;"/>
   </g>
   <g id="patch_28">
    <path clip-path="url(#p3c350859d6)" d="M 159.474308 48925.854615 
L 181.529644 48925.854615 
L 181.529644 48925.854615 
L 159.474308 48925.854615 
z
" style="fill:#6c3f70;fill-opacity:0.75;stroke:#ffffff;stroke-linejoin:miter;"/>
   </g>
   <g id="patch_29">
    <path clip-path="url(#p3c350859d6)" d="M 181.529644 48925.854615 
L 203.58498 48925.854615 
L 203.58498 232.494236 
L 181.529644 232.494236 
z
" style="fill:#6c3f70;fill-opacity:0.75;stroke:#ffffff;stroke-linejoin:miter;"/>
   </g>
   <g id="patch_30">
    <path clip-path="url(#p3c350859d6)" d="M 203.58498 326.972986 
L 225.640316 326.972986 
L 225.640316 172.806823 
L 203.58498 172.806823 
z
" style="fill:#6c3f70;fill-opacity:0.75;stroke:#ffffff;stroke-linejoin:miter;"/>
   </g>
   <g id="patch_31">
    <path clip-path="url(#p3c350859d6)" d="M 225.640316 251.144204 
L 247.695652 251.144204 
L 247.695652 139.709278 
L 225.640316 139.709278 
z
" style="fill:#6c3f70;fill-opacity:0.75;stroke:#ffffff;stroke-linejoin:miter;"/>
   </g>
   <g id="patch_32">
    <path clip-path="url(#p3c350859d6)" d="M 247.695652 211.787264 
L 269.750988 211.787264 
L 269.750988 119.929018 
L 247.695652 119.929018 
z
" style="fill:#6c3f70;fill-opacity:0.75;stroke:#ffffff;stroke-linejoin:miter;"/>
   </g>
   <g id="patch_33">
    <path clip-path="url(#p3c350859d6)" d="M 269.750988 189.178829 
L 291.806324 189.178829 
L 291.806324 109.383337 
L 269.750988 109.383337 
z
" style="fill:#6c3f70;fill-opacity:0.75;stroke:#ffffff;stroke-linejoin:miter;"/>
   </g>
   <g id="patch_34">
    <path clip-path="url(#p3c350859d6)" d="M 291.806324 176.881819 
L 313.86166 176.881819 
L 313.86166 106.639499 
L 291.806324 106.639499 
z
" style="fill:#6c3f70;fill-opacity:0.75;stroke:#ffffff;stroke-linejoin:miter;"/>
   </g>
   <g id="patch_35">
    <path clip-path="url(#p3c350859d6)" d="M 313.86166 172.622974 
L 335.916996 172.622974 
L 335.916996 110.095045 
L 313.86166 110.095045 
z
" style="fill:#6c3f70;fill-opacity:0.75;stroke:#ffffff;stroke-linejoin:miter;"/>
   </g>
   <g id="patch_36">
    <path clip-path="url(#p3c350859d6)" d="M 335.916996 174.409508 
L 357.972332 174.409508 
L 357.972332 118.338581 
L 335.916996 118.338581 
z
" style="fill:#6c3f70;fill-opacity:0.75;stroke:#ffffff;stroke-linejoin:miter;"/>
   </g>
   <g id="patch_37">
    <path clip-path="url(#p3c350859d6)" d="M 357.972332 180.264438 
L 380.027668 180.264438 
L 380.027668 129.956266 
L 357.972332 129.956266 
z
" style="fill:#6c3f70;fill-opacity:0.75;stroke:#ffffff;stroke-linejoin:miter;"/>
   </g>
   <g id="patch_38">
    <path clip-path="url(#p3c350859d6)" d="M 380.027668 188.591202 
L 402.083004 188.591202 
L 402.083004 143.224766 
L 380.027668 143.224766 
z
" style="fill:#6c3f70;fill-opacity:0.75;stroke:#ffffff;stroke-linejoin:miter;"/>
   </g>
   <g id="patch_39">
    <path clip-path="url(#p3c350859d6)" d="M 402.083004 197.856789 
L 424.13834 197.856789 
L 424.13834 157.586864 
L 402.083004 157.586864 
z
" style="fill:#6c3f70;fill-opacity:0.75;stroke:#ffffff;stroke-linejoin:miter;"/>
   </g>
   <g id="patch_40">
    <path clip-path="url(#p3c350859d6)" d="M 424.13834 208.505253 
L 446.193676 208.505253 
L 446.193676 172.526283 
L 424.13834 172.526283 
z
" style="fill:#6c3f70;fill-opacity:0.75;stroke:#ffffff;stroke-linejoin:miter;"/>
   </g>
   <g id="patch_41">
    <path clip-path="url(#p3c350859d6)" d="M 446.193676 219.673855 
L 468.249012 219.673855 
L 468.249012 187.732313 
L 446.193676 187.732313 
z
" style="fill:#6c3f70;fill-opacity:0.75;stroke:#ffffff;stroke-linejoin:miter;"/>
   </g>
   <g id="patch_42">
    <path clip-path="url(#p3c350859d6)" d="M 468.249012 233.252325 
L 490.304348 233.252325 
L 490.304348 203.696746 
L 468.249012 203.696746 
z
" style="fill:#6c3f70;fill-opacity:0.75;stroke:#ffffff;stroke-linejoin:miter;"/>
   </g>
   <g id="patch_43">
    <path clip-path="url(#p3c350859d6)" d="M 490.304348 246.481762 
L 512.359684 246.481762 
L 512.359684 221.235256 
L 490.304348 221.235256 
z
" style="fill:#6c3f70;fill-opacity:0.75;stroke:#ffffff;stroke-linejoin:miter;"/>
   </g>
   <g id="patch_44">
    <path clip-path="url(#p3c350859d6)" d="M 512.359684 263.260137 
L 534.41502 263.260137 
L 534.41502 240.8801 
L 512.359684 240.8801 
z
" style="fill:#6c3f70;fill-opacity:0.75;stroke:#ffffff;stroke-linejoin:miter;"/>
   </g>
   <g id="patch_45">
    <path clip-path="url(#p3c350859d6)" d="M 534.41502 284.838522 
L 556.470356 284.838522 
L 556.470356 263.164265 
L 534.41502 263.164265 
z
" style="fill:#6c3f70;fill-opacity:0.75;stroke:#ffffff;stroke-linejoin:miter;"/>
   </g>
   <g id="patch_46">
    <path clip-path="url(#p3c350859d6)" d="M 556.470356 310.405755 
L 578.525692 310.405755 
L 578.525692 291.30457 
L 556.470356 291.30457 
z
" style="fill:#6c3f70;fill-opacity:0.75;stroke:#ffffff;stroke-linejoin:miter;"/>
   </g>
   <g id="patch_47">
    <path clip-path="url(#p3c350859d6)" d="M 578.525692 336.571218 
L 600.581028 336.571218 
L 600.581028 316.514892 
L 578.525692 316.514892 
z
" style="fill:#6c3f70;fill-opacity:0.75;stroke:#ffffff;stroke-linejoin:miter;"/>
   </g>
   <g id="patch_48">
    <path clip-path="url(#p3c350859d6)" d="M 600.581028 363.174545 
L 622.636364 363.174545 
L 622.636364 363.174545 
L 600.581028 363.174545 
z
" style="fill:#6c3f70;fill-opacity:0.75;stroke:#ffffff;stroke-linejoin:miter;"/>
   </g>
   <g id="patch_49">
    <path clip-path="url(#p3c350859d6)" d="M 115.363636 48925.854615 
L 137.418972 48925.854615 
L 137.418972 48925.854615 
L 115.363636 48925.854615 
z
" style="fill:#a9678f;fill-opacity:0.75;stroke:#ffffff;stroke-linejoin:miter;"/>
   </g>
   <g id="patch_50">
    <path clip-path="url(#p3c350859d6)" d="M 137.418972 48925.854615 
L 159.474308 48925.854615 
L 159.474308 48925.854615 
L 137.418972 48925.854615 
z
" style="fill:#a9678f;fill-opacity:0.75;stroke:#ffffff;stroke-linejoin:miter;"/>
   </g>
   <g id="patch_51">
    <path clip-path="url(#p3c350859d6)" d="M 159.474308 48925.854615 
L 181.529644 48925.854615 
L 181.529644 157.468511 
L 159.474308 157.468511 
z
" style="fill:#a9678f;fill-opacity:0.75;stroke:#ffffff;stroke-linejoin:miter;"/>
   </g>
   <g id="patch_52">
    <path clip-path="url(#p3c350859d6)" d="M 181.529644 232.494236 
L 203.58498 232.494236 
L 203.58498 118.647133 
L 181.529644 118.647133 
z
" style="fill:#a9678f;fill-opacity:0.75;stroke:#ffffff;stroke-linejoin:miter;"/>
   </g>
   <g id="patch_53">
    <path clip-path="url(#p3c350859d6)" d="M 203.58498 172.806823 
L 225.640316 172.806823 
L 225.640316 93.898207 
L 203.58498 93.898207 
z
" style="fill:#a9678f;fill-opacity:0.75;stroke:#ffffff;stroke-linejoin:miter;"/>
   </g>
   <g id="patch_54">
    <path clip-path="url(#p3c350859d6)" d="M 225.640316 139.709278 
L 247.695652 139.709278 
L 247.695652 79.198575 
L 225.640316 79.198575 
z
" style="fill:#a9678f;fill-opacity:0.75;stroke:#ffffff;stroke-linejoin:miter;"/>
   </g>
   <g id="patch_55">
    <path clip-path="url(#p3c350859d6)" d="M 247.695652 119.929018 
L 269.750988 119.929018 
L 269.750988 72.888268 
L 247.695652 72.888268 
z
" style="fill:#a9678f;fill-opacity:0.75;stroke:#ffffff;stroke-linejoin:miter;"/>
   </g>
   <g id="patch_56">
    <path clip-path="url(#p3c350859d6)" d="M 269.750988 109.383337 
L 291.806324 109.383337 
L 291.806324 72.105846 
L 269.750988 72.105846 
z
" style="fill:#a9678f;fill-opacity:0.75;stroke:#ffffff;stroke-linejoin:miter;"/>
   </g>
   <g id="patch_57">
    <path clip-path="url(#p3c350859d6)" d="M 291.806324 106.639499 
L 313.86166 106.639499 
L 313.86166 77.215034 
L 291.806324 77.215034 
z
" style="fill:#a9678f;fill-opacity:0.75;stroke:#ffffff;stroke-linejoin:miter;"/>
   </g>
   <g id="patch_58">
    <path clip-path="url(#p3c350859d6)" d="M 313.86166 110.095045 
L 335.916996 110.095045 
L 335.916996 86.926208 
L 313.86166 86.926208 
z
" style="fill:#a9678f;fill-opacity:0.75;stroke:#ffffff;stroke-linejoin:miter;"/>
   </g>
   <g id="patch_59">
    <path clip-path="url(#p3c350859d6)" d="M 335.916996 118.338581 
L 357.972332 118.338581 
L 357.972332 100.44181 
L 335.916996 100.44181 
z
" style="fill:#a9678f;fill-opacity:0.75;stroke:#ffffff;stroke-linejoin:miter;"/>
   </g>
   <g id="patch_60">
    <path clip-path="url(#p3c350859d6)" d="M 357.972332 129.956266 
L 380.027668 129.956266 
L 380.027668 116.350234 
L 357.972332 116.350234 
z
" style="fill:#a9678f;fill-opacity:0.75;stroke:#ffffff;stroke-linejoin:miter;"/>
   </g>
   <g id="patch_61">
    <path clip-path="url(#p3c350859d6)" d="M 380.027668 143.224766 
L 402.083004 143.224766 
L 402.083004 133.21383 
L 380.027668 133.21383 
z
" style="fill:#a9678f;fill-opacity:0.75;stroke:#ffffff;stroke-linejoin:miter;"/>
   </g>
   <g id="patch_62">
    <path clip-path="url(#p3c350859d6)" d="M 402.083004 157.586864 
L 424.13834 157.586864 
L 424.13834 150.470637 
L 402.083004 150.470637 
z
" style="fill:#a9678f;fill-opacity:0.75;stroke:#ffffff;stroke-linejoin:miter;"/>
   </g>
   <g id="patch_63">
    <path clip-path="url(#p3c350859d6)" d="M 424.13834 172.526283 
L 446.193676 172.526283 
L 446.193676 167.264904 
L 424.13834 167.264904 
z
" style="fill:#a9678f;fill-opacity:0.75;stroke:#ffffff;stroke-linejoin:miter;"/>
   </g>
   <g id="patch_64">
    <path clip-path="url(#p3c350859d6)" d="M 446.193676 187.732313 
L 468.249012 187.732313 
L 468.249012 183.803537 
L 446.193676 183.803537 
z
" style="fill:#a9678f;fill-opacity:0.75;stroke:#ffffff;stroke-linejoin:miter;"/>
   </g>
   <g id="patch_65">
    <path clip-path="url(#p3c350859d6)" d="M 468.249012 203.696746 
L 490.304348 203.696746 
L 490.304348 200.386726 
L 468.249012 200.386726 
z
" style="fill:#a9678f;fill-opacity:0.75;stroke:#ffffff;stroke-linejoin:miter;"/>
   </g>
   <g id="patch_66">
    <path clip-path="url(#p3c350859d6)" d="M 490.304348 221.235256 
L 512.359684 221.235256 
L 512.359684 217.718411 
L 490.304348 217.718411 
z
" style="fill:#a9678f;fill-opacity:0.75;stroke:#ffffff;stroke-linejoin:miter;"/>
   </g>
   <g id="patch_67">
    <path clip-path="url(#p3c350859d6)" d="M 512.359684 240.8801 
L 534.41502 240.8801 
L 534.41502 237.597031 
L 512.359684 237.597031 
z
" style="fill:#a9678f;fill-opacity:0.75;stroke:#ffffff;stroke-linejoin:miter;"/>
   </g>
   <g id="patch_68">
    <path clip-path="url(#p3c350859d6)" d="M 534.41502 263.164265 
L 556.470356 263.164265 
L 556.470356 261.157683 
L 534.41502 261.157683 
z
" style="fill:#a9678f;fill-opacity:0.75;stroke:#ffffff;stroke-linejoin:miter;"/>
   </g>
   <g id="patch_69">
    <path clip-path="url(#p3c350859d6)" d="M 556.470356 291.30457 
L 578.525692 291.30457 
L 578.525692 287.075928 
L 556.470356 287.075928 
z
" style="fill:#a9678f;fill-opacity:0.75;stroke:#ffffff;stroke-linejoin:miter;"/>
   </g>
   <g id="patch_70">
    <path clip-path="url(#p3c350859d6)" d="M 578.525692 316.514892 
L 600.581028 316.514892 
L 600.581028 315.366735 
L 578.525692 315.366735 
z
" style="fill:#a9678f;fill-opacity:0.75;stroke:#ffffff;stroke-linejoin:miter;"/>
   </g>
   <g id="patch_71">
    <path clip-path="url(#p3c350859d6)" d="M 600.581028 363.174545 
L 622.636364 363.174545 
L 622.636364 363.174545 
L 600.581028 363.174545 
z
" style="fill:#a9678f;fill-opacity:0.75;stroke:#ffffff;stroke-linejoin:miter;"/>
   </g>
   <g id="patch_72">
    <path clip-path="url(#p3c350859d6)" d="M 115.363636 48925.854615 
L 137.418972 48925.854615 
L 137.418972 48925.854615 
L 115.363636 48925.854615 
z
" style="fill:#d499a7;fill-opacity:0.75;stroke:#ffffff;stroke-linejoin:miter;"/>
   </g>
   <g id="patch_73">
    <path clip-path="url(#p3c350859d6)" d="M 137.418972 48925.854615 
L 159.474308 48925.854615 
L 159.474308 92.385563 
L 137.418972 92.385563 
z
" style="fill:#d499a7;fill-opacity:0.75;stroke:#ffffff;stroke-linejoin:miter;"/>
   </g>
   <g id="patch_74">
    <path clip-path="url(#p3c350859d6)" d="M 159.474308 157.468511 
L 181.529644 157.468511 
L 181.529644 96.195209 
L 159.474308 96.195209 
z
" style="fill:#d499a7;fill-opacity:0.75;stroke:#ffffff;stroke-linejoin:miter;"/>
   </g>
   <g id="patch_75">
    <path clip-path="url(#p3c350859d6)" d="M 181.529644 118.647133 
L 203.58498 118.647133 
L 203.58498 83.731696 
L 181.529644 83.731696 
z
" style="fill:#d499a7;fill-opacity:0.75;stroke:#ffffff;stroke-linejoin:miter;"/>
   </g>
   <g id="patch_76">
    <path clip-path="url(#p3c350859d6)" d="M 203.58498 93.898207 
L 225.640316 93.898207 
L 225.640316 75.406077 
L 203.58498 75.406077 
z
" style="fill:#d499a7;fill-opacity:0.75;stroke:#ffffff;stroke-linejoin:miter;"/>
   </g>
   <g id="patch_77">
    <path clip-path="url(#p3c350859d6)" d="M 225.640316 79.198575 
L 247.695652 79.198575 
L 247.695652 69.240737 
L 225.640316 69.240737 
z
" style="fill:#d499a7;fill-opacity:0.75;stroke:#ffffff;stroke-linejoin:miter;"/>
   </g>
   <g id="patch_78">
    <path clip-path="url(#p3c350859d6)" d="M 247.695652 72.888268 
L 269.750988 72.888268 
L 269.750988 66.665455 
L 247.695652 66.665455 
z
" style="fill:#d499a7;fill-opacity:0.75;stroke:#ffffff;stroke-linejoin:miter;"/>
   </g>
   <g id="patch_79">
    <path clip-path="url(#p3c350859d6)" d="M 269.750988 72.105846 
L 291.806324 72.105846 
L 291.806324 68.442848 
L 269.750988 68.442848 
z
" style="fill:#d499a7;fill-opacity:0.75;stroke:#ffffff;stroke-linejoin:miter;"/>
   </g>
   <g id="patch_80">
    <path clip-path="url(#p3c350859d6)" d="M 291.806324 77.215034 
L 313.86166 77.215034 
L 313.86166 75.186025 
L 291.806324 75.186025 
z
" style="fill:#d499a7;fill-opacity:0.75;stroke:#ffffff;stroke-linejoin:miter;"/>
   </g>
   <g id="patch_81">
    <path clip-path="url(#p3c350859d6)" d="M 313.86166 86.926208 
L 335.916996 86.926208 
L 335.916996 85.855702 
L 313.86166 85.855702 
z
" style="fill:#d499a7;fill-opacity:0.75;stroke:#ffffff;stroke-linejoin:miter;"/>
   </g>
   <g id="patch_82">
    <path clip-path="url(#p3c350859d6)" d="M 335.916996 100.44181 
L 357.972332 100.44181 
L 357.972332 99.939973 
L 335.916996 99.939973 
z
" style="fill:#d499a7;fill-opacity:0.75;stroke:#ffffff;stroke-linejoin:miter;"/>
   </g>
   <g id="patch_83">
    <path clip-path="url(#p3c350859d6)" d="M 357.972332 116.350234 
L 380.027668 116.350234 
L 380.027668 116.134496 
L 357.972332 116.134496 
z
" style="fill:#d499a7;fill-opacity:0.75;stroke:#ffffff;stroke-linejoin:miter;"/>
   </g>
   <g id="patch_84">
    <path clip-path="url(#p3c350859d6)" d="M 380.027668 133.21383 
L 402.083004 133.21383 
L 402.083004 133.127734 
L 380.027668 133.127734 
z
" style="fill:#d499a7;fill-opacity:0.75;stroke:#ffffff;stroke-linejoin:miter;"/>
   </g>
   <g id="patch_85">
    <path clip-path="url(#p3c350859d6)" d="M 402.083004 150.470637 
L 424.13834 150.470637 
L 424.13834 150.446464 
L 402.083004 150.446464 
z
" style="fill:#d499a7;fill-opacity:0.75;stroke:#ffffff;stroke-linejoin:miter;"/>
   </g>
   <g id="patch_86">
    <path clip-path="url(#p3c350859d6)" d="M 424.13834 167.264904 
L 446.193676 167.264904 
L 446.193676 167.261767 
L 424.13834 167.261767 
z
" style="fill:#d499a7;fill-opacity:0.75;stroke:#ffffff;stroke-linejoin:miter;"/>
   </g>
   <g id="patch_87">
    <path clip-path="url(#p3c350859d6)" d="M 446.193676 183.803537 
L 468.249012 183.803537 
L 468.249012 183.803537 
L 446.193676 183.803537 
z
" style="fill:#d499a7;fill-opacity:0.75;stroke:#ffffff;stroke-linejoin:miter;"/>
   </g>
   <g id="patch_88">
    <path clip-path="url(#p3c350859d6)" d="M 468.249012 200.386726 
L 490.304348 200.386726 
L 490.304348 200.386726 
L 468.249012 200.386726 
z
" style="fill:#d499a7;fill-opacity:0.75;stroke:#ffffff;stroke-linejoin:miter;"/>
   </g>
   <g id="patch_89">
    <path clip-path="url(#p3c350859d6)" d="M 490.304348 217.718411 
L 512.359684 217.718411 
L 512.359684 217.718411 
L 490.304348 217.718411 
z
" style="fill:#d499a7;fill-opacity:0.75;stroke:#ffffff;stroke-linejoin:miter;"/>
   </g>
   <g id="patch_90">
    <path clip-path="url(#p3c350859d6)" d="M 512.359684 237.597031 
L 534.41502 237.597031 
L 534.41502 237.597031 
L 512.359684 237.597031 
z
" style="fill:#d499a7;fill-opacity:0.75;stroke:#ffffff;stroke-linejoin:miter;"/>
   </g>
   <g id="patch_91">
    <path clip-path="url(#p3c350859d6)" d="M 534.41502 261.157683 
L 556.470356 261.157683 
L 556.470356 261.157683 
L 534.41502 261.157683 
z
" style="fill:#d499a7;fill-opacity:0.75;stroke:#ffffff;stroke-linejoin:miter;"/>
   </g>
   <g id="patch_92">
    <path clip-path="url(#p3c350859d6)" d="M 556.470356 287.075928 
L 578.525692 287.075928 
L 578.525692 287.075928 
L 556.470356 287.075928 
z
" style="fill:#d499a7;fill-opacity:0.75;stroke:#ffffff;stroke-linejoin:miter;"/>
   </g>
   <g id="patch_93">
    <path clip-path="url(#p3c350859d6)" d="M 578.525692 315.366735 
L 600.581028 315.366735 
L 600.581028 315.366735 
L 578.525692 315.366735 
z
" style="fill:#d499a7;fill-opacity:0.75;stroke:#ffffff;stroke-linejoin:miter;"/>
   </g>
   <g id="patch_94">
    <path clip-path="url(#p3c350859d6)" d="M 600.581028 363.174545 
L 622.636364 363.174545 
L 622.636364 363.174545 
L 600.581028 363.174545 
z
" style="fill:#d499a7;fill-opacity:0.75;stroke:#ffffff;stroke-linejoin:miter;"/>
   </g>
   <g id="patch_95">
    <path clip-path="url(#p3c350859d6)" d="M 115.363636 48925.854615 
L 137.418972 48925.854615 
L 137.418972 142.818374 
L 115.363636 142.818374 
z
" style="fill:#edd1cb;fill-opacity:0.75;stroke:#ffffff;stroke-linejoin:miter;"/>
   </g>
   <g id="patch_96">
    <path clip-path="url(#p3c350859d6)" d="M 137.418972 92.385563 
L 159.474308 92.385563 
L 159.474308 92.385563 
L 137.418972 92.385563 
z
" style="fill:#edd1cb;fill-opacity:0.75;stroke:#ffffff;stroke-linejoin:miter;"/>
   </g>
   <g id="patch_97">
    <path clip-path="url(#p3c350859d6)" d="M 159.474308 96.195209 
L 181.529644 96.195209 
L 181.529644 96.195209 
L 159.474308 96.195209 
z
" style="fill:#edd1cb;fill-opacity:0.75;stroke:#ffffff;stroke-linejoin:miter;"/>
   </g>
   <g id="patch_98">
    <path clip-path="url(#p3c350859d6)" d="M 181.529644 83.731696 
L 203.58498 83.731696 
L 203.58498 83.731696 
L 181.529644 83.731696 
z
" style="fill:#edd1cb;fill-opacity:0.75;stroke:#ffffff;stroke-linejoin:miter;"/>
   </g>
   <g id="patch_99">
    <path clip-path="url(#p3c350859d6)" d="M 203.58498 75.406077 
L 225.640316 75.406077 
L 225.640316 75.406077 
L 203.58498 75.406077 
z
" style="fill:#edd1cb;fill-opacity:0.75;stroke:#ffffff;stroke-linejoin:miter;"/>
   </g>
   <g id="patch_100">
    <path clip-path="url(#p3c350859d6)" d="M 225.640316 69.240737 
L 247.695652 69.240737 
L 247.695652 69.240737 
L 225.640316 69.240737 
z
" style="fill:#edd1cb;fill-opacity:0.75;stroke:#ffffff;stroke-linejoin:miter;"/>
   </g>
   <g id="patch_101">
    <path clip-path="url(#p3c350859d6)" d="M 247.695652 66.665455 
L 269.750988 66.665455 
L 269.750988 66.665455 
L 247.695652 66.665455 
z
" style="fill:#edd1cb;fill-opacity:0.75;stroke:#ffffff;stroke-linejoin:miter;"/>
   </g>
   <g id="patch_102">
    <path clip-path="url(#p3c350859d6)" d="M 269.750988 68.442848 
L 291.806324 68.442848 
L 291.806324 68.442848 
L 269.750988 68.442848 
z
" style="fill:#edd1cb;fill-opacity:0.75;stroke:#ffffff;stroke-linejoin:miter;"/>
   </g>
   <g id="patch_103">
    <path clip-path="url(#p3c350859d6)" d="M 291.806324 75.186025 
L 313.86166 75.186025 
L 313.86166 75.186025 
L 291.806324 75.186025 
z
" style="fill:#edd1cb;fill-opacity:0.75;stroke:#ffffff;stroke-linejoin:miter;"/>
   </g>
   <g id="patch_104">
    <path clip-path="url(#p3c350859d6)" d="M 313.86166 85.855702 
L 335.916996 85.855702 
L 335.916996 85.855702 
L 313.86166 85.855702 
z
" style="fill:#edd1cb;fill-opacity:0.75;stroke:#ffffff;stroke-linejoin:miter;"/>
   </g>
   <g id="patch_105">
    <path clip-path="url(#p3c350859d6)" d="M 335.916996 99.939973 
L 357.972332 99.939973 
L 357.972332 99.939973 
L 335.916996 99.939973 
z
" style="fill:#edd1cb;fill-opacity:0.75;stroke:#ffffff;stroke-linejoin:miter;"/>
   </g>
   <g id="patch_106">
    <path clip-path="url(#p3c350859d6)" d="M 357.972332 116.134496 
L 380.027668 116.134496 
L 380.027668 116.134496 
L 357.972332 116.134496 
z
" style="fill:#edd1cb;fill-opacity:0.75;stroke:#ffffff;stroke-linejoin:miter;"/>
   </g>
   <g id="patch_107">
    <path clip-path="url(#p3c350859d6)" d="M 380.027668 133.127734 
L 402.083004 133.127734 
L 402.083004 133.127734 
L 380.027668 133.127734 
z
" style="fill:#edd1cb;fill-opacity:0.75;stroke:#ffffff;stroke-linejoin:miter;"/>
   </g>
   <g id="patch_108">
    <path clip-path="url(#p3c350859d6)" d="M 402.083004 150.446464 
L 424.13834 150.446464 
L 424.13834 150.446464 
L 402.083004 150.446464 
z
" style="fill:#edd1cb;fill-opacity:0.75;stroke:#ffffff;stroke-linejoin:miter;"/>
   </g>
   <g id="patch_109">
    <path clip-path="url(#p3c350859d6)" d="M 424.13834 167.261767 
L 446.193676 167.261767 
L 446.193676 167.261767 
L 424.13834 167.261767 
z
" style="fill:#edd1cb;fill-opacity:0.75;stroke:#ffffff;stroke-linejoin:miter;"/>
   </g>
   <g id="patch_110">
    <path clip-path="url(#p3c350859d6)" d="M 446.193676 183.803537 
L 468.249012 183.803537 
L 468.249012 183.803537 
L 446.193676 183.803537 
z
" style="fill:#edd1cb;fill-opacity:0.75;stroke:#ffffff;stroke-linejoin:miter;"/>
   </g>
   <g id="patch_111">
    <path clip-path="url(#p3c350859d6)" d="M 468.249012 200.386726 
L 490.304348 200.386726 
L 490.304348 200.386726 
L 468.249012 200.386726 
z
" style="fill:#edd1cb;fill-opacity:0.75;stroke:#ffffff;stroke-linejoin:miter;"/>
   </g>
   <g id="patch_112">
    <path clip-path="url(#p3c350859d6)" d="M 490.304348 217.718411 
L 512.359684 217.718411 
L 512.359684 217.718411 
L 490.304348 217.718411 
z
" style="fill:#edd1cb;fill-opacity:0.75;stroke:#ffffff;stroke-linejoin:miter;"/>
   </g>
   <g id="patch_113">
    <path clip-path="url(#p3c350859d6)" d="M 512.359684 237.597031 
L 534.41502 237.597031 
L 534.41502 237.597031 
L 512.359684 237.597031 
z
" style="fill:#edd1cb;fill-opacity:0.75;stroke:#ffffff;stroke-linejoin:miter;"/>
   </g>
   <g id="patch_114">
    <path clip-path="url(#p3c350859d6)" d="M 534.41502 261.157683 
L 556.470356 261.157683 
L 556.470356 261.157683 
L 534.41502 261.157683 
z
" style="fill:#edd1cb;fill-opacity:0.75;stroke:#ffffff;stroke-linejoin:miter;"/>
   </g>
   <g id="patch_115">
    <path clip-path="url(#p3c350859d6)" d="M 556.470356 287.075928 
L 578.525692 287.075928 
L 578.525692 287.075928 
L 556.470356 287.075928 
z
" style="fill:#edd1cb;fill-opacity:0.75;stroke:#ffffff;stroke-linejoin:miter;"/>
   </g>
   <g id="patch_116">
    <path clip-path="url(#p3c350859d6)" d="M 578.525692 315.366735 
L 600.581028 315.366735 
L 600.581028 315.366735 
L 578.525692 315.366735 
z
" style="fill:#edd1cb;fill-opacity:0.75;stroke:#ffffff;stroke-linejoin:miter;"/>
   </g>
   <g id="patch_117">
    <path clip-path="url(#p3c350859d6)" d="M 600.581028 363.174545 
L 622.636364 363.174545 
L 622.636364 363.174545 
L 600.581028 363.174545 
z
" style="fill:#edd1cb;fill-opacity:0.75;stroke:#ffffff;stroke-linejoin:miter;"/>
   </g>
   <g id="patch_118">
    <path d="M 90 378 
L 90 51.84 
" style="fill:none;stroke:#262626;stroke-linecap:square;stroke-linejoin:miter;stroke-width:1.25;"/>
   </g>
   <g id="patch_119">
    <path d="M 90 378 
L 648 378 
" style="fill:none;stroke:#262626;stroke-linecap:square;stroke-linejoin:miter;stroke-width:1.25;"/>
   </g>
   <g id="text_15">
    <!-- Number of moves in optimal solution -->
    <g style="fill:#262626;" transform="translate(257.77875 45.84)scale(0.12 -0.12)">
     <defs>
      <path d="M 9.8125 72.90625 
L 23.09375 72.90625 
L 55.421875 11.921875 
L 55.421875 72.90625 
L 64.984375 72.90625 
L 64.984375 0 
L 51.703125 0 
L 19.390625 60.984375 
L 19.390625 0 
L 9.8125 0 
z
" id="DejaVuSans-78"/>
      <path d="M 8.5 21.578125 
L 8.5 54.6875 
L 17.484375 54.6875 
L 17.484375 21.921875 
Q 17.484375 14.15625 20.5 10.265625 
Q 23.53125 6.390625 29.59375 6.390625 
Q 36.859375 6.390625 41.078125 11.03125 
Q 45.3125 15.671875 45.3125 23.6875 
L 45.3125 54.6875 
L 54.296875 54.6875 
L 54.296875 0 
L 45.3125 0 
L 45.3125 8.40625 
Q 42.046875 3.421875 37.71875 1 
Q 33.40625 -1.421875 27.6875 -1.421875 
Q 18.265625 -1.421875 13.375 4.4375 
Q 8.5 10.296875 8.5 21.578125 
z
M 31.109375 56 
z
" id="DejaVuSans-117"/>
      <path id="DejaVuSans-32"/>
      <path d="M 37.109375 75.984375 
L 37.109375 68.5 
L 28.515625 68.5 
Q 23.6875 68.5 21.796875 66.546875 
Q 19.921875 64.59375 19.921875 59.515625 
L 19.921875 54.6875 
L 34.71875 54.6875 
L 34.71875 47.703125 
L 19.921875 47.703125 
L 19.921875 0 
L 10.890625 0 
L 10.890625 47.703125 
L 2.296875 47.703125 
L 2.296875 54.6875 
L 10.890625 54.6875 
L 10.890625 58.5 
Q 10.890625 67.625 15.140625 71.796875 
Q 19.390625 75.984375 28.609375 75.984375 
z
" id="DejaVuSans-102"/>
      <path d="M 54.890625 33.015625 
L 54.890625 0 
L 45.90625 0 
L 45.90625 32.71875 
Q 45.90625 40.484375 42.875 44.328125 
Q 39.84375 48.1875 33.796875 48.1875 
Q 26.515625 48.1875 22.3125 43.546875 
Q 18.109375 38.921875 18.109375 30.90625 
L 18.109375 0 
L 9.078125 0 
L 9.078125 54.6875 
L 18.109375 54.6875 
L 18.109375 46.1875 
Q 21.34375 51.125 25.703125 53.5625 
Q 30.078125 56 35.796875 56 
Q 45.21875 56 50.046875 50.171875 
Q 54.890625 44.34375 54.890625 33.015625 
z
" id="DejaVuSans-110"/>
     </defs>
     <use xlink:href="#DejaVuSans-78"/>
     <use x="74.804688" xlink:href="#DejaVuSans-117"/>
     <use x="138.183594" xlink:href="#DejaVuSans-109"/>
     <use x="235.595703" xlink:href="#DejaVuSans-98"/>
     <use x="299.072266" xlink:href="#DejaVuSans-101"/>
     <use x="360.595703" xlink:href="#DejaVuSans-114"/>
     <use x="401.708984" xlink:href="#DejaVuSans-32"/>
     <use x="433.496094" xlink:href="#DejaVuSans-111"/>
     <use x="494.677734" xlink:href="#DejaVuSans-102"/>
     <use x="529.882812" xlink:href="#DejaVuSans-32"/>
     <use x="561.669922" xlink:href="#DejaVuSans-109"/>
     <use x="659.082031" xlink:href="#DejaVuSans-111"/>
     <use x="720.263672" xlink:href="#DejaVuSans-118"/>
     <use x="779.443359" xlink:href="#DejaVuSans-101"/>
     <use x="840.966797" xlink:href="#DejaVuSans-115"/>
     <use x="893.066406" xlink:href="#DejaVuSans-32"/>
     <use x="924.853516" xlink:href="#DejaVuSans-105"/>
     <use x="952.636719" xlink:href="#DejaVuSans-110"/>
     <use x="1016.015625" xlink:href="#DejaVuSans-32"/>
     <use x="1047.802734" xlink:href="#DejaVuSans-111"/>
     <use x="1108.984375" xlink:href="#DejaVuSans-112"/>
     <use x="1172.460938" xlink:href="#DejaVuSans-116"/>
     <use x="1211.669922" xlink:href="#DejaVuSans-105"/>
     <use x="1239.453125" xlink:href="#DejaVuSans-109"/>
     <use x="1336.865234" xlink:href="#DejaVuSans-97"/>
     <use x="1398.144531" xlink:href="#DejaVuSans-108"/>
     <use x="1425.927734" xlink:href="#DejaVuSans-32"/>
     <use x="1457.714844" xlink:href="#DejaVuSans-115"/>
     <use x="1509.814453" xlink:href="#DejaVuSans-111"/>
     <use x="1570.996094" xlink:href="#DejaVuSans-108"/>
     <use x="1598.779297" xlink:href="#DejaVuSans-117"/>
     <use x="1662.158203" xlink:href="#DejaVuSans-116"/>
     <use x="1701.367188" xlink:href="#DejaVuSans-105"/>
     <use x="1729.150391" xlink:href="#DejaVuSans-111"/>
     <use x="1790.332031" xlink:href="#DejaVuSans-110"/>
    </g>
   </g>
   <g id="legend_1">
    <g id="patch_120">
     <path d="M 563.12 158.817187 
L 640.3 158.817187 
Q 642.5 158.817187 642.5 156.617188 
L 642.5 59.54 
Q 642.5 57.34 640.3 57.34 
L 563.12 57.34 
Q 560.92 57.34 560.92 59.54 
L 560.92 156.617188 
Q 560.92 158.817187 563.12 158.817187 
z
" style="fill:#ffffff;opacity:0.8;stroke:#cccccc;stroke-linejoin:miter;"/>
    </g>
    <g id="text_16">
     <!-- robots_used -->
     <g style="fill:#262626;" transform="translate(565.32 70.858125)scale(0.12 -0.12)">
      <defs>
       <path d="M 50.984375 -16.609375 
L 50.984375 -23.578125 
L -0.984375 -23.578125 
L -0.984375 -16.609375 
z
" id="DejaVuSans-95"/>
       <path d="M 45.40625 46.390625 
L 45.40625 75.984375 
L 54.390625 75.984375 
L 54.390625 0 
L 45.40625 0 
L 45.40625 8.203125 
Q 42.578125 3.328125 38.25 0.953125 
Q 33.9375 -1.421875 27.875 -1.421875 
Q 17.96875 -1.421875 11.734375 6.484375 
Q 5.515625 14.40625 5.515625 27.296875 
Q 5.515625 40.1875 11.734375 48.09375 
Q 17.96875 56 27.875 56 
Q 33.9375 56 38.25 53.625 
Q 42.578125 51.265625 45.40625 46.390625 
z
M 14.796875 27.296875 
Q 14.796875 17.390625 18.875 11.75 
Q 22.953125 6.109375 30.078125 6.109375 
Q 37.203125 6.109375 41.296875 11.75 
Q 45.40625 17.390625 45.40625 27.296875 
Q 45.40625 37.203125 41.296875 42.84375 
Q 37.203125 48.484375 30.078125 48.484375 
Q 22.953125 48.484375 18.875 42.84375 
Q 14.796875 37.203125 14.796875 27.296875 
z
" id="DejaVuSans-100"/>
      </defs>
      <use xlink:href="#DejaVuSans-114"/>
      <use x="38.863281" xlink:href="#DejaVuSans-111"/>
      <use x="100.044922" xlink:href="#DejaVuSans-98"/>
      <use x="163.521484" xlink:href="#DejaVuSans-111"/>
      <use x="224.703125" xlink:href="#DejaVuSans-116"/>
      <use x="263.912109" xlink:href="#DejaVuSans-115"/>
      <use x="316.011719" xlink:href="#DejaVuSans-95"/>
      <use x="366.011719" xlink:href="#DejaVuSans-117"/>
      <use x="429.390625" xlink:href="#DejaVuSans-115"/>
      <use x="481.490234" xlink:href="#DejaVuSans-101"/>
      <use x="543.013672" xlink:href="#DejaVuSans-100"/>
     </g>
    </g>
    <g id="patch_121">
     <path d="M 582.810625 87.545781 
L 604.810625 87.545781 
L 604.810625 79.845781 
L 582.810625 79.845781 
z
" style="fill:#edd1cb;fill-opacity:0.75;stroke:#ffffff;stroke-linejoin:miter;"/>
    </g>
    <g id="text_17">
     <!-- 0 -->
     <g style="fill:#262626;" transform="translate(613.610625 87.545781)scale(0.11 -0.11)">
      <use xlink:href="#DejaVuSans-48"/>
     </g>
    </g>
    <g id="patch_122">
     <path d="M 582.810625 103.691719 
L 604.810625 103.691719 
L 604.810625 95.991719 
L 582.810625 95.991719 
z
" style="fill:#d499a7;fill-opacity:0.75;stroke:#ffffff;stroke-linejoin:miter;"/>
    </g>
    <g id="text_18">
     <!-- 1 -->
     <g style="fill:#262626;" transform="translate(613.610625 103.691719)scale(0.11 -0.11)">
      <use xlink:href="#DejaVuSans-49"/>
     </g>
    </g>
    <g id="patch_123">
     <path d="M 582.810625 119.837656 
L 604.810625 119.837656 
L 604.810625 112.137656 
L 582.810625 112.137656 
z
" style="fill:#a9678f;fill-opacity:0.75;stroke:#ffffff;stroke-linejoin:miter;"/>
    </g>
    <g id="text_19">
     <!-- 2 -->
     <g style="fill:#262626;" transform="translate(613.610625 119.837656)scale(0.11 -0.11)">
      <use xlink:href="#DejaVuSans-50"/>
     </g>
    </g>
    <g id="patch_124">
     <path d="M 582.810625 135.983594 
L 604.810625 135.983594 
L 604.810625 128.283594 
L 582.810625 128.283594 
z
" style="fill:#6c3f70;fill-opacity:0.75;stroke:#ffffff;stroke-linejoin:miter;"/>
    </g>
    <g id="text_20">
     <!-- 3 -->
     <g style="fill:#262626;" transform="translate(613.610625 135.983594)scale(0.11 -0.11)">
      <use xlink:href="#DejaVuSans-51"/>
     </g>
    </g>
    <g id="patch_125">
     <path d="M 582.810625 152.129531 
L 604.810625 152.129531 
L 604.810625 144.429531 
L 582.810625 144.429531 
z
" style="fill:#2d1e3e;fill-opacity:0.75;stroke:#ffffff;stroke-linejoin:miter;"/>
    </g>
    <g id="text_21">
     <!-- 4 -->
     <g style="fill:#262626;" transform="translate(613.610625 152.129531)scale(0.11 -0.11)">
      <use xlink:href="#DejaVuSans-52"/>
     </g>
    </g>
   </g>
  </g>
 </g>
 <defs>
  <clipPath id="p3c350859d6">
   <rect height="326.16" width="558" x="90" y="51.84"/>
  </clipPath>
 </defs>
</svg>
